<svg width="28" height="29" fill="none" xmlns="http://www.w3.org/2000/svg"><path d="M14.016.729C10.411.735 7.138 2.184 4.722 4.54L2.779 2.558C1.957 1.72.55 2.313.55 3.5v7.44c0 .735.585 1.331 1.306 1.331h7.292c1.163 0 1.746-1.434.924-2.273L7.8 7.68a8.977 8.977 0 0 1 6.16-2.513c5.026-.044 9.263 4.106 9.22 9.404-.042 5.025-4.036 9.242-9.14 9.242a8.968 8.968 0 0 1-6.017-2.306.642.642 0 0 0-.89.03L4.975 23.74a.676.676 0 0 0 .026.967c2.392 2.204 5.562 3.547 9.04 3.547 7.45 0 13.49-6.162 13.49-13.763C27.531 6.9 21.458.715 14.016.73Z" fill="#fff"/></svg>