<svg width="800" height="800" viewBox="0 0 24 24" fill="none" xmlns="http://www.w3.org/2000/svg"><path d="m8 5c-.988.0001-1.506.013-1.908.218-.376.192-.682.498-.874.874-.218.428-.218.988-.218 2.108v9.6c0 1.12 0 1.68.218 2.108.192.376.498.682.874.874.428.218.988.218 2.108.218h7.6c1.12 0 1.68 0 2.108-.218.376-.192.682-.498.874-.874.218-.428.218-.988.218-2.108v-9.6c0-1.12 0-1.68-.218-2.108-.192-.376-.498-.682-.874-.874-.402-.205-.92-.217-1.908-.218m-8 0v2h8v-2m-8 0v-.293c0-.453.18-.887.5-1.207.32-.32.754-.5 1.207-.5h4.586c.453 0 .887.18 1.207.5.32.32.5.754.5 1.207v.293" stroke="#000" stroke-width="2" stroke-linecap="round" stroke-linejoin="round"/></svg>