<svg fill="#000000" height="800" width="800" xmlns="http://www.w3.org/2000/svg" viewBox="0 0 511.999 511.999"><path d="m408.72 168.19l-7.703-7.703c-3.19-3.189-8.363-3.189-11.554 0-3.191 3.192-3.191 8.364 0 11.555l7.703 7.703c1.595 1.595 3.686 2.392 5.777 2.392 2.09 0 4.182-.797 5.777-2.392 3.19-3.192 3.19-8.364 0-11.555"/><path d="m202.67 123.9l-7.704-7.702c-3.191-3.19-8.364-3.191-11.554.0001-3.191 3.191-3.19 8.364.0001 11.554l7.703 7.702c1.595 1.595 3.685 2.392 5.777 2.392 2.092 0 4.182-.797 5.778-2.393 3.19-3.191 3.189-8.364-.0001-11.554"/><path d="m435.69 326.1c-.003-.003-25.17-25.17-25.17-25.17 64.38-70.44 62.51-180.14-5.64-248.28-33.949-33.948-79.09-52.645-127.1-52.645-45.28 0-87.996 16.636-121.19 47l-36.722-36.723c-3.191-3.19-8.364-3.19-11.554 0-3.191 3.192-3.191 8.364 0 11.555l5.893 5.893c-81.35 87.46-79.47 224.79 5.66 309.93 41.462 41.461 95.31 63.16 149.74 65.14v16.609h-8.17c-3.516 0-6.639 2.25-7.751 5.586l-9.03 27.09h-43.13c-25.751 0-47.16 18.911-51.09 43.574h-3.375c-4.512 0-8.17 3.657-8.17 8.17 0 4.513 3.658 8.17 8.17 8.17h261.45c4.512 0 8.17-3.657 8.17-8.17 0-4.513-3.658-8.17-8.17-8.17h-3.375c-3.929-24.663-25.342-43.574-51.09-43.574h-43.13l-9.03-27.1c-1.112-3.337-4.234-5.586-7.751-5.586h-8.17v-16.609c51.893-1.882 103.24-21.709 143.85-59.48l5.895 5.893c1.595 1.595 3.686 2.392 5.777 2.392 2.091 0 4.182-.797 5.777-2.392 3.191-3.192 3.191-8.364 0-11.555l-11.553-11.55m-145.2-309.27c33.515 2.56 65 15.227 90.89 36.533 1.439 1.522 2.237 3.499 2.237 5.604 0 2.182-.85 4.234-2.393 5.777l-26.417 26.417-13.48-13.48c-1.532-1.532-3.61-2.392-5.777-2.392-2.167 0-4.245.861-5.777 2.392l-71.25 71.25-11.555-11.555 17.332-17.331c3.191-3.191 3.191-8.364 0-11.554-1.544-1.544-2.393-3.596-2.393-5.778 0-2.183.85-4.234 2.393-5.777l7.703-7.703c3.191-3.192 3.191-8.364 0-11.555l-21.18-21.18 39.667-39.667m-97.53 23.19c22.452-13.687 47.907-21.715 74.59-23.354l-45.608 45.608c-3.191 3.192-3.191 8.364 0 11.555 1.595 1.595 3.686 2.392 5.777 2.392s4.182-.797 5.777-2.392l5.777-5.777 15.407 15.406-1.926 1.926c-4.63 4.63-7.179 10.784-7.179 17.332 0 3.72.824 7.314 2.383 10.572l-18.313 18.313c-1.533 1.533-2.393 3.61-2.393 5.778 0 2.168.861 4.244 2.393 5.778l17.331 17.332-9.628 9.628c-3.191 3.192-3.191 8.364 0 11.555 1.595 1.595 3.686 2.392 5.777 2.392 2.091 0 4.182-.797 5.777-2.392l15.4-15.4c.011-.011 48.15-48.15 48.15-48.15l11.555 11.554-55.847 55.847c-11.68 11.681-11.68 30.686 0 42.37 11.68 11.68 30.685 11.679 42.37 0l1.926-1.927 21.18 21.18c5.641 5.641 13.164 8.748 21.18 8.748 8.02 0 15.542-3.108 21.18-8.748l26.96-26.959c1.533-1.533 2.393-3.61 2.393-5.778 0-2.168-.861-4.244-2.393-5.778l-25.03-25.03c-3.191-3.189-8.364-3.191-11.554 0-3.191 3.192-3.191 8.364 0 11.555l19.258 19.258-21.18 21.18c-2.555 2.555-5.974 3.962-9.629 3.962-3.655 0-7.07-1.407-9.629-3.963l-26.961-26.959c-3.191-3.19-8.364-3.19-11.554 0l-7.703 7.703c-5.311 5.308-13.949 5.308-19.258 0-2.572-2.571-3.988-5.991-3.988-9.629 0-3.636 1.416-7.06 3.988-9.628l44.29-44.29 19.258 19.257c1.595 1.595 3.686 2.392 5.777 2.392 2.09 0 4.182-.797 5.777-2.392 3.191-3.192 3.191-8.364 0-11.555l-19.257-19.257 5.777-5.777c1.533-1.533 2.393-3.61 2.393-5.778 0-2.168-.861-4.244-2.393-5.778l-17.332-17.331 11.554-11.554 13.474 13.474c.012.012 19.263 19.264 19.263 19.264 3.19 3.19 8.363 3.19 11.554 0 3.191-3.192 3.191-8.364 0-11.555l-13.48-13.48 26.417-26.418c2.162-2.163 3.851-4.668 5.058-7.381 50.15 54.28 56.694 134.57 19.624 195.63-15.443-7.84-34.468-5.148-47.25 7.631-12.789 12.789-15.474 31.839-7.609 47.29-24.846 15.15-53.37 23.363-83.16 23.659l-2.984-30.794c-1.337-13.796-10.06-32.28-19.861-42.08l-23.11-23.11c-3.191-3.19-8.364-3.19-11.554 0l-46.22 46.22c-2.602 2.602-4.652 5.599-6.117 8.84-2.511-2.224-4.971-4.522-7.363-6.914-4.56-4.56-8.782-9.33-12.689-14.271l39.649-39.649 1.926 1.926c1.595 1.595 3.686 2.392 5.777 2.392s4.182-.797 5.777-2.392c3.191-3.192 3.191-8.364 0-11.555l-7.704-7.704-77.19-77.19c3.691-18.09 10.462-35.674 20.311-51.9 5.79 2.94 12.08 4.4 18.367 4.4 10.468 0 20.898-4.05 28.884-12.04 12.791-12.788 15.477-31.839 7.611-47.29m215.18 238.25c-4.484 5.924-9.414 11.616-14.813 17.02-5.374 5.372-11.06 10.314-17.01 14.829-3.561-8.871-1.681-19.248 5.454-26.384 7.131-7.133 17.501-9.01 26.368-5.461m-145.17 64.2c-28.866-2.577-56.16-12.665-79.59-29.322.304-3.096 1.655-5.991 3.902-8.239l40.44-40.44 17.332 17.331c7.104 7.104 14.183 22.11 15.15 32.1l2.768 28.567m-123.02-74.965c-19.325-30.342-27.66-65.71-24.995-100.4l62.696 62.696-37.701 37.7m22.295-203.31c5.373-5.373 11.06-10.315 17.01-14.831 3.561 8.871 1.682 19.249-5.454 26.384-7.132 7.132-17.5 9.01-26.368 5.461 4.485-5.923 9.416-11.615 14.814-17.01m126 371.54l5.447 16.34h-10.451c-4.512 0-8.17 3.657-8.17 8.17 0 4.513 3.658 8.17 8.17 8.17h70.808c16.71 0 30.743 11.64 34.442 27.23h-221.39c3.699-15.594 17.733-27.23 34.442-27.23h49.02c3.516 0 6.639-2.25 7.751-5.586l9.03-27.09h20.902m-156.81-109.64c-78.77-78.76-80.64-205.73-5.653-286.81l19.27 19.269c-64.38 70.44-62.5 180.14 5.642 248.28 33.949 33.949 79.09 52.644 127.1 52.644 45.28 0 87.995-16.633 121.19-47l19.267 19.267c-81.08 74.984-208.04 73.11-286.81-5.654"/></svg>