<svg xmlns="http://www.w3.org/2000/svg" width="640" height="640" viewBox="0 0 512.000000 512.000000"><g transform="matrix(.1 0 0-.1 0 512)"><path d="m2199 4350c-184-38-353-128-494-262-180-170-288-370-325-601-20-122-8-340 24-452 90-313 326-578 619-695 152-61 226-74 402-74 140 1 172 4 260 27 489 131 817 576 792 1076-13 270-114 498-307 692-154 156-326 249-542 293-106 22-316 20-429-4m320-117c58-28 143-121 189-211l43-82-28-11c-15-6-71-20-123-31-121-25-294-20-415 12-44 12-82 24-85 26-10 11 76 158 122 209 100 110 191 137 297 88m-447-84c-17-24-43-70-58-101-16-32-31-58-34-58-3 0-31 18-63 39l-59 39 46 31c48 33 187 103 193 97 2-2-9-23-25-47m723 31c25-11 78-41 117-66l72-46-25-19c-13-11-41-29-61-39l-38-20-31 62c-17 35-45 82-61 106-16 23-27 42-24 42 2 0 25-9 51-20m-950-249c41-27 80-51 85-53 7-2 2-41-14-107-14-57-30-149-36-205-7-55-14-120-16-143l-5-43h-185-184v29c0 81 48 242 104 349 38 71 151 222 166 222 5 0 43-22 85-49m1294-11c106-127 177-282 206-447 8-47 15-87 15-89 0-2-85-4-189-4h-188l-7 103c-3 56-18 156-32 222-14 66-28 131-30 145-4 22 6 31 78 76 46 29 86 52 90 53 4 1 30-26 57-59m-969-132c64-19 101-22 255-21 164 0 188 2 270 26 50 14 93 22 96 19 17-18 55-222 65-345l7-87h-437-436v54c0 72 16 191 42 299 19 82 22 88 42 83 11-4 55-16 96-28m-305-585c19-186 29-251 51-339 23-92 23-100 8-109-10-5-49-31-88-57l-71-47-23 22c-50 46-117 146-163 242-51 108-75 188-85 284l-7 61h186 186l6-57m995 20c-1-98-51-387-70-398-5-3-42 4-82 14-181 49-366 51-544 6-54-14-102-25-105-25-19 0-69 284-69 386v54h435 435v-37m401 27h98l-6-37c-29-204-127-419-241-527l-31-29-69 44c-38 24-77 49-86 54-16 9-16 16 3 95 26 112 51 284 51 355v58l92-7c50-3 135-6 189-6m-731-500c47-6 116-20 153-31l68-20-43-81c-83-159-205-251-310-234-94 15-193 102-258 226-22 43-40 81-40 84 0 10 133 46 201 55 93 12 134 12 229 1m-456-269l26-41-52 21c-45 17-110 53-177 98-11 7 0 19 49 50l64 41 32-64c18-35 44-83 58-105m835 137c20-12 44-28 53-36 16-14 16-16-5-32-30-23-123-75-171-95l-39-16 22 33c12 18 37 63 57 101 19 37 37 67 40 67 4 0 23-10 43-22"/><path d="m278 3550c-48-26-84-74-97-130-7-30-11-544-11-1526 0-1655-4-1551 69-1617 22-20 57-40 78-46 58-16 1912-15 1967 1 52 16 111 75 127 128l13 42 13-45c16-54 75-111 132-127 27-7 341-9 998-8 950 3 958 3 998 24 22 11 54 40 70 63l30 43 3 1536 2 1535-21 45c-23 46-95 102-131 102-17 0-18-57-18-1398v-1398l-30-48c-23-35-44-53-83-71l-52-25h-865c-573 0-878 4-903 11-48 13-105 63-127 111l-16 37-22-43c-24-52-71-90-127-105-60-16-1733-15-1789 1-63 19-121 83-136 149-8 40-10 414-8 1417 3 1205 1 1362-12 1362-8-1-32-10-52-20"/><path d="m690 3321c-13-26-3-50 24-56 11-3 124-4 250-3 205 3 230 5 240 21 8 12 8 22 0 35-10 15-35 17-257 20-235 2-247 1-257-17"/><path d="m696 2794c-19-18-19-20-6-45 10-18 24-19 300-19 158 0 295 3 304 6 22 9 20 51-3 64-12 6-126 10-300 10-241 0-282-2-295-16"/><path d="m3846 2794c-9-8-16-21-16-28 0-31 25-36 165-36 145 0 165 5 165 42 0 30-35 38-169 38-104 0-133-3-145-16"/><path d="m689 2254c-9-11-10-20-2-32 9-16 53-17 484-17h474v30 30l-471 3c-421 2-473 0-485-14"/><path d="m3599 2254c-9-11-10-20-2-32 9-15 39-17 284-17h274v30 30l-271 3c-239 2-273 0-285-14"/><path d="m690 1721c-13-25-13-27 6-45 14-14 89-16 673-16 498 0 660 3 669 12 17 17 15 55-4 62-9 3-312 6-674 6-642 0-660-1-670-19"/><path d="m2800 1721c-13-25-13-27 6-45 14-14 88-16 665-16 429 0 657 4 670 10 21 12 25 40 7 58-9 9-173 12-675 12-645 0-663-1-673-19"/><path d="m696 1194c-19-18-19-20-6-45 10-18 28-19 670-19 362 0 665 3 674 6 19 7 21 45 4 62-9 9-171 12-669 12-584 0-659-2-673-16"/><path d="m2806 1194c-19-18-19-20-6-45 10-18 28-19 673-19 502 0 666 3 675 12 18 18 14 46-7 58-13 6-241 10-670 10-577 0-651-2-665-16"/></g></svg>