<svg width="800" height="800" viewBox="0 0 24 24" fill="none" xmlns="http://www.w3.org/2000/svg"><g stroke="#1c274c" stroke-linecap="round" stroke-width="1.5"><path d="m22 12.204v1.521c0 3.901 0 5.851-1.172 7.06-1.171 1.212-3.057 1.212-6.828 1.212h-4c-3.771 0-5.657 0-6.828-1.212-1.172-1.212-1.172-3.162-1.172-7.06v-1.521c0-2.288 0-3.433.519-4.381.519-.949 1.468-1.537 3.365-2.715l2-1.241c2.01-1.245 3.01-1.867 4.116-1.867 1.108 0 2.111.622 4.116 1.867l2 1.241c1.897 1.177 2.846 1.766 3.365 2.715"/><path d="M15 18H9"/></g></svg>