<svg fill="#000000" xmlns="http://www.w3.org/2000/svg" viewBox="0 0 512 512"><path d="m413.54 0h-315.08c-54.29 0-98.46 44.17-98.46 98.46v315.08c0 54.29 44.17 98.46 98.46 98.46h315.08c54.29 0 98.46-44.17 98.46-98.46v-315.08c0-54.29-44.17-98.46-98.46-98.46m-177.23 472.62h-137.85c-32.575 0-59.08-26.502-59.08-59.08v-137.85h196.92v196.92m0-236.31h-196.92v-137.85c0-32.575 26.502-59.08 59.08-59.08h137.85v196.92m236.31 177.23c0 32.575-26.502 59.08-59.08 59.08h-137.85v-196.92h196.92v137.85m0-177.23h-196.92v-196.92h137.85c32.575 0 59.08 26.502 59.08 59.08v137.85"/><path d="m321.64 315.08h105.03v39.38h-105.03z"/><path d="m321.64 118.15h105.03v39.38h-105.03z"/><path d="m321.64 393.85h105.03v39.38h-105.03z"/><path d="m191.16 348.69l-27.85-27.84-25.46 25.46-25.46-25.46-27.85 27.84 25.46 25.46-25.46 25.47 27.85 27.84 25.46-25.46 25.46 25.46 27.85-27.84-25.47-25.47z"/><path d="m157.54 121.34v-36.01h-39.39v36.01h-36v39.38h36v36.01h39.39v-36.01h36v-39.38z"/></svg>