<svg fill="none" height="256" stroke="#ff8a00" viewBox="0 0 24 24" width="256" xmlns="http://www.w3.org/2000/svg"><g stroke="#ff8a00" stroke-linecap="round" stroke-linejoin="round" stroke-width="1.2"><path d="m18.5 19.5h-4"/><path d="m16.5 21.5v-4"/><path d="m12.16 10.87c-.1-.01-.22-.01-.33 0-2.38003-.08-4.27003-2.03-4.27003-4.43-.01-2.45 1.98-4.44 4.43003-4.44 2.45 0 4.44 1.99 4.44 4.44 0 2.4-1.9 4.35-4.27 4.43z"/><path d="m11.99 21.8101c-1.82 0-3.62996-.46-5.00996-1.38-2.42-1.62-2.42-4.26 0-5.87 2.75-1.84 7.25996-1.84 10.00996 0"/></g></svg>