<svg fill="#000000" width="800" height="800" viewBox="0 0 192 192" xmlns="http://www.w3.org/2000/svg" fill-rule="evenodd" stroke-linejoin="round" clip-rule="evenodd" stroke-miterlimit="2"><path d="m342.29 804l1.078 1.09.094.093c11.01 10.65 24.17 7.167 30.634 1.313l.06-.054 5.616-5.229a6 6 0 0 0 -.374 -9.103s-6.23-4.908-10.531-8.954a28.998 28.998 0 0 1 -.906 -.893c8.943-13.993 13.07-32.495 13.07-50.775 0-22.628-6.864-45.01-20.779-59.44-13.11-13.596-32.814-20.04-52.27-20.04-18.938 0-38.07 6.129-51.08 19.08-14.538 14.482-21.976 37.2-21.976 60.4 0 21.447 5.732 43.15 18.4 57.4 13.314 14.975 34.2 22.456 54.762 22.09 11-.198 25.17-2.719 34.2-6.97m5.305-11.7a6 6 0 0 0 -7.773 -.648c-6.63 4.779-21.2 7.126-31.953 7.32-17.07.307-34.524-5.628-45.577-18.06-10.879-12.236-15.369-31.01-15.369-49.42 0-19.886 5.987-39.49 18.445-51.901 10.819-10.776 26.852-15.582 42.609-15.582 16.201 0 32.719 5.05 43.638 16.373 11.932 12.371 17.416 31.706 17.416 51.11 0 17.238-3.934 34.786-13.171 47.2-.804 1.08-1.303 2.4-1.255 4.02.034 1.134.611 3.304 2.556 5.607 1.991 2.357 6.05 5.945 9.417 8.788l-.564.525c-3 2.699-9.05 3.867-14.15-1.013l-4.267-4.313m-20.944-9.462a5.999 5.999 0 0 0 1.934 -9.74l-10.593-10.738 1.982-1.916.073-.071c.654-.654 1.994-.786 3.395-.936 2.699-.29 5.955-.089 7.793 1.703.396.404 4.192 4.286 4.987 5.084.319.321.527.495.564.526 2.422 2.01 4.581 1.349 4.974 1.273 1.995-.387 3.318-1.498 4.156-3.074 4.719-8.877 7.21-21.493 7.21-33.461 0-15.509-4.214-30.835-12.567-40.723-8.177-9.68-20.448-14.267-32.582-14.267-11.815 0-23.743 4.366-31.855 13.593-8.73 9.93-13.294 25.486-13.294 41.4 0 14.687 3.526 29.535 11.124 39.29 8.332 10.702 21.448 16.291 34.31 15.69 11.21-.524 18.394-3.633 18.394-3.633m11.774-31.32c-4.271-3.319-10.665-4.616-16.263-4.02-4.532.486-8.42 2.23-10.558 4.341l-6.31 6.099a5.998 5.998 0 0 0 -.101 8.528l7.455 7.557a55.046 55.046 0 0 1 -4.951 .454c-9.1.425-18.383-3.505-24.277-11.08-6.15-7.899-8.592-20.03-8.592-31.921 0-12.817 3.274-25.475 10.306-33.474 5.796-6.592 14.401-9.516 22.843-9.516 8.687 0 17.561 3.08 23.415 10.01 6.739 7.978 9.734 20.466 9.734 32.979 0 6.806-.885 13.882-2.701 20.03" transform="translate(-212-636)"/></svg>