<svg viewBox="0 0 35 37" fill="none" xmlns="http://www.w3.org/2000/svg"><path fill-rule="evenodd" d="m27.02 24.671c-2.863 2.63-6.826 4.258-11.205 4.258-8.733 0-15.812-6.476-15.812-14.464 0-7.989 7.079-14.465 15.812-14.465 8.733 0 15.812 6.476 15.812 14.465 0 2.527-.709 4.903-1.954 6.97 6.27 4.219 4.613 13.2 3.899 14.565-.153.292-.136.188-.075-.196.249-1.558 1.234-7.727-5.415-10.633-.367-.16-.721-.328-1.064-.501m-2.803-1.73c-2.205 1.777-5.1 2.854-8.269 2.854-6.914 0-12.518-5.127-12.518-11.451 0-6.324 5.605-11.451 12.518-11.451 6.914 0 12.518 5.127 12.518 11.451 0 2.048-.588 3.971-1.618 5.634-4.564-2.271-6.353-5.03-7.238-6.401-.514-.794-.723-1.117-.994-.598-.634 1.214.57 6.208 5.6 9.961" fill="#000"/></svg>