<svg fill="#000000" height="800" width="800" xmlns="http://www.w3.org/2000/svg" viewBox="0 0 496 496"><path d="m280 272.04c17.648 0 32-14.352 32-32s-14.352-32-32-32-32 14.352-32 32 14.352 32 32 32m0-48c8.824 0 16 7.176 16 16 0 8.824-7.176 16-16 16-8.824 0-16-7.176-16-16 0-8.824 7.176-16 16-16"/><path d="m374.3 202.73c-1.024-1.872-2.024-3.76-3.128-5.584 24.352-68.46 30.648-127.66 1.52-144.8-18.11-10.64-44.44-1.64-76.69 25.984v-62.29h16v-16h-128v16h16v62.31c-32.26-27.656-58.61-36.664-76.71-26.01-18.568 10.912-23.832 40.38-15.224 85.2l15.72-3.02c-6.904-35.96-4.064-61.53 7.616-68.39 12.784-7.528 38.33 5.112 68.6 33.784v36.32c-25.656 9.03-47.45 24.728-63.776 44.776-3.496-10.648-6.584-21.02-9.02-30.896l-15.528 3.832c3.36 13.664 7.856 28.18 13.16 43.18-1.104 1.824-2.104 3.712-3.128 5.584-77.38 14.168-121.71 39.33-121.71 69.32 0 33.3 52.51 56.76 121.86 69.33.96 1.736 2.056 3.368 3.08 5.056-27.29 76.88-27.968 129.74-1.648 145.22 4.888 2.872 10.432 4.312 16.568 4.312 3.904 0 8.06-.584 12.44-1.76 26.21-7.02 60.34-35.776 95.23-78.18.16.008.312.032.472.032.152 0 .296-.024.448-.024 34.896 42.41 69.02 71.16 95.23 78.18 4.376 1.168 8.528 1.76 12.44 1.76 6.144 0 11.68-1.44 16.568-4.312 26.304-15.48 25.64-68.34-1.64-145.18 1.04-1.704 2.144-3.36 3.112-5.112 15.736-2.888 30.608-6.264 44.1-10.232l-4.512-15.344c-9.776 2.872-20.352 5.416-31.4 7.704 6.136-16 9.648-33.3 9.648-51.43 0-18.04-3.368-35.38-9.456-51.43 67.15 13.872 97.46 35.38 97.46 51.43 0 13.05-18.48 27.15-50.696 38.68l5.392 15.06c40.11-14.36 61.3-32.936 61.3-53.744 0-29.992-44.34-55.15-121.7-69.31m-78.3-102.82c30.25-28.64 55.792-41.31 68.58-33.76 16.608 9.76 15.472 53.624-4.728 114.97-16.336-20.08-38.15-35.816-63.848-44.864v-36.34m-85.65 49.784l5.648-1.736v-131.91h64v131.91l5.648 1.736c13.608 4.184 26.09 10.44 37.15 18.352h-149.6c11.06-7.912 23.544-14.168 37.15-18.352m20.18 34.35c-3.312 9.288-12.11 16-22.528 16s-19.216-6.712-22.528-16h45.06m-75.57 0h13.856c3.72 18.232 19.872 32 39.19 32s35.472-13.768 39.19-32h93.84c4.536 4.784 8.68 9.904 12.416 15.328-11.832 31.952-28.352 67.792-49.752 105.52-5.872 10.352-11.912 20.4-18.03 30.18-12.36.592-24.912.968-37.672.968-12.936 0-25.504-.304-37.656-.88-4.376-6.992-8.688-14.16-12.944-21.448 11.144-7.104 18.6-19.504 18.6-33.672 0-22.06-17.944-40-40-40-5.424 0-10.592 1.104-15.32 3.072-6.808-14.944-12.816-29.6-18.08-43.84 3.72-5.384 7.848-10.472 12.36-15.232m12.6 73.61c2.64-.992 5.464-1.608 8.44-1.608 13.232 0 24 10.768 24 24 0 8.232-4.168 15.496-10.504 19.824-7.864-14.11-15.192-28.22-21.936-42.22m5.84 46.13c-12-1.32-21.4-11.392-21.4-23.736 0-4.168 1.168-8.04 3.048-11.464 5.72 11.688 11.88 23.448 18.352 35.2m-157.4-31.736c0-16.06 30.3-37.56 97.46-51.43-6.088 16.06-9.456 33.392-9.456 51.43 0 18.18 3.528 35.528 9.704 51.56-60.8-12.552-97.7-32.72-97.7-51.56m104 0c0-19.544 4.424-38.15 12.32-54.896 4.552 11.528 9.504 23.25 14.984 35.14-6.968 7.2-11.304 16.968-11.304 27.752 0 22.06 17.944 40 40 40 2.128 0 4.168-.304 6.208-.624 2.848 4.912 5.704 9.776 8.608 14.56-20.888-1.536-40.38-3.872-58.18-6.848-8.02-16.712-12.64-35.35-12.64-55.09m28.16 206.7c-6.944 1.848-12.584 1.552-16.76-.896-14.256-8.376-17.68-47.06 4.848-115.17 22.432 27.608 54.88 46.648 91.74 51.808-29.912 34.896-58.44 58.53-79.82 64.26m-5.376-133.99c18.784 2.712 38.448 4.68 58.4 5.872 11.176 17.456 22.616 33.776 34.07 48.768-38.29-3.8-71.62-24.568-92.47-54.64m105.2 44.944c-9.08-11.896-18.15-24.624-27.1-38.14 9.04.312 18.1.488 27.11.488 9.12 0 18.14-.192 27.08-.488-8.944 13.512-18.02 26.25-27.1 38.14m46.76-39.02c20.328-1.192 39.88-3.224 58.46-5.912-20.848 30.06-54.19 50.832-92.49 54.624 11.448-14.976 22.864-31.28 34.03-48.712m69.832 127.17c-4.168 2.456-9.816 2.744-16.76.896-21.384-5.728-49.912-29.36-79.82-64.26 36.856-5.16 69.3-24.18 91.74-51.784 22.512 68.09 19.1 106.76 4.848 115.14m-1.152-150.84c-18.288 3.064-37.824 5.36-58.21 6.872 4.192-6.904 8.344-13.912 12.416-21.1 17.648-31.11 33.504-64.01 46.03-95.67 7.912 16.752 12.336 35.38 12.336 54.928 0 19.688-4.6 38.29-12.576 54.968"/></svg>