<svg width="800" height="800" viewBox="0 0 48 48" xmlns="http://www.w3.org/2000/svg"><path d="m19.862 13.879h6.04v2.055c0 1.667-1.353 3.02-3.02 3.02-1.667 0-3.02-1.353-3.02-3.02v-2.055"/><path d="m28.986 9.989h-7.53v3.89"/><path d="m25.901 13.879h1.155c1.648 0 2.983 1.336 2.983 2.983v1.843c0 1.648-1.336 2.983-2.983 2.983h-6.317c-1.784 0-2.384.6-2.778 1.302"/><path d="m25.901 13.879v-3.89"/><path d="m13.168 18.573h-5.528c-1.148 0-2.078.93-2.078 2.078v19.771c0 1.148.93 2.078 2.078 2.078h32.72c1.148 0 2.078-.93 2.078-2.078v-19.771c0-1.148-.93-2.078-2.078-2.078h-5.284"/><rect x="14.1" y="35.763" width="20.04" height="3.327" rx=".421"/><rect x="10.733" y="29.78" width="3.366" height="3.366" rx=".421"/><rect x="16.586" y="29.78" width="3.366" height="3.366" rx=".421"/><path d="m25.805 30.355v2.37c0 .232-.188.421-.421.421h-2.524c-.232 0-.421-.188-.421-.421v-2.37"/><rect x="28.29" y="29.78" width="3.366" height="3.366" rx=".421"/><rect x="34.14" y="29.78" width="3.366" height="3.366" rx=".421"/><rect x="10.733" y="23.797" width="3.366" height="3.366" rx=".421"/><path d="m18.276 27.16h-1.269c-.232 0-.421-.188-.421-.421v-.875"/><path d="m31.658 25.867v.875c0 .232-.188.421-.421.421h-1.269"/><rect x="34.14" y="23.797" width="3.366" height="3.366" rx=".421"/><path d="m34.25 23.878l-10.131 7.768-10.131-7.768c-.519-.398-.824-1.015-.824-1.67v-15.02c0-.93.754-1.683 1.683-1.683h18.542c.93 0 1.683.754 1.683 1.683v15.02c0 .654-.304 1.271-.824 1.669"/></svg>