<svg xmlns="http://www.w3.org/2000/svg" height="709.98" viewBox="0 0 553.30993 709.98242"><path d="m37.567 781.82c-5.58-1.253-7.917-2.507-9.493-5.092-.948-1.554-1.723-3.431-1.723-4.172 0-.741.815 0 1.812 1.625.997 1.634 3.204 3.554 4.906 4.264 3.626 1.515 11.621 1.552 17.949.08l4.473-1.038 2.866-9.73c3.066-10.408 3.472-11.257 4.765-9.957.9.904-4.305 20.388-5.83 21.824-2.109 1.985-14.513 3.366-19.724 2.195zm470-3.768c-7.06-2.306-10.768-6.191-10.768-11.287 0-3.409 2.39-2.839 3.06.73.313 1.66 1.285 3.67 2.165 4.466 5.629 5.094 25.894 5.74 29.868.952.646-.775 1.445-3.092 1.78-5.147l.613-3.738.113 3.325c.266 7.816-4.057 10.739-16.497 11.161-4.444.153-9.09-.067-10.331-.46zm-481.98-9.985c0-1.234.206-1.74.453-1.122.246.619.246 1.627 0 2.244-.246.619-.453.113-.453-1.122m482.83-2.647c-6.79-2.061-11.887-6.788-14.314-13.277-.986-2.637-1.794-5.572-1.794-6.523 0-1.569-.812-1.757-8.754-2.023-4.815-.16-1.684-.3 6.958-.306 8.641-.006 12.997.127 9.679.3l-6.03.313 1.907 5.122c2.604 6.996 3.971 8.881 8.266 11.397 5.595 3.277 13.08 4.181 17.656 2.132 5.601-2.508 8.999-5.241 10.336-8.313.667-1.532 1.227-2.181 1.245-1.44.067 2.628-3.524 7.116-8.207 10.27-4.082 2.749-5.444 3.187-9.698 3.12-2.723-.067-5.984-.393-7.247-.774zm-479.83-.653c-7.07-.882-6.843-.619-6.173-7.148l.606-5.911-7.475.32-7.475.32-.785-2.693c-1.272-4.364 0-12.99 2.648-18.27 2.725-5.389 8.757-11.253 14.961-14.544 2.278-1.209 4.133-2.4 4.123-2.648 0-.246-3.234-4.288-7.164-8.98-3.929-4.691-7.154-8.832-7.164-9.203 0-.373-.827-.673-1.814-.673-.988 0-1.796-.386-1.796-.854 0-.473 12.136-11.62 26.968-24.777l26.967-23.924-4.814-5.524c-7.04-8.08-11.973-15.778-15.172-23.682-3.883-9.598-4.539-22.862-1.714-34.703 2.053-8.604 7.164-20.369 11.736-27.01 3.97-5.771 13.293-13.202 22.583-17.999 7.828-4.04 24.04-10.695 24.634-10.11.173.173-4.216 2.204-9.75 4.518-20.271 8.474-34.379 19.517-39.984 31.29-7.601 15.972-10.1 38.52-5.695 51.29 2.492 7.213 8.662 16.801 16.209 25.19 3.02 3.357 5.492 6.451 5.492 6.875 0 .426-11.916 11.334-26.478 24.24l-26.479 23.474 3 3.32c1.65 1.826 5.617 6.35 8.815 10.05l5.815 6.734 86.12-.173c47.37-.093 159.05.093 248.18.413l162.06.586-249.45 1.096-249.45 1.096-4.953 2.978c-6.625 3.984-13.424 11.501-14.716 16.27-1.267 4.678-1.446 12.05-.32 13.08.466.42 3.572.573 6.905.333 5.186-.366 6.06-.671 6.06-2.118 0-.93.606-1.692 1.347-1.692.748 0 1.347.799 1.347 1.796 0 2.289-12.424 2.319 184.95-.446 87.16-1.221 166.95-2.172 177.32-2.112 10.37.067-50.43 1.439-135.12 3.062-84.69 1.624-161.33 2.983-170.31 3.02l-16.334.067-5.214 4.81c-2.867 2.646-6.504 5.473-8.08 6.281-4.771 2.449-16.599 3.713-24.966 2.669zm23.972-4.251c2.776-.991 13.03-8.534 12.202-8.978-.147-.08-8.947.073-19.564.34l-19.303.48-.493 4.295c-.273 2.362-.306 4.483-.073 4.713.993.993 24.09.273 27.23-.846zm481.2-11.304c0-1.235.206-1.74.453-1.122.246.619.246 1.627 0 2.244-.246.619-.453.113-.453-1.122m-112.59-5.16c6.543-.153 17.25-.153 23.792 0 6.543.153 1.189.28-11.896.28-13.09 0-18.439-.127-11.896-.28m122.47-10.866l-4.672-9.562 3.184 3.591c7.212 8.135 10.08 14.03 7.347 15.08-.793.306-2.735-2.714-5.859-9.106m-11.277-21.907c1.474-1.605 4.583-5.02 6.91-7.593 2.326-2.571 4.23-4.334 4.23-3.918 0 1.797-7.279 11.425-9.721 12.858-3.978 2.335-4.417 1.918-1.419-1.347m-268.5-11.503c-2.945-1.04-6.4-2.637-7.678-3.546-2.01-1.428-3.162-1.551-8.426-.898-11.75 1.457-28.55-1.273-47.22-7.673-6.574-2.253-17.453-4.656-35.941-7.938l-26.513-4.707-16.362-7.489c-8.998-4.119-16.235-7.616-16.08-7.77.153-.153 7.677 2.984 16.717 6.974l16.436 7.255 27.06 4.326c19.653 3.142 29.27 5.102 35.14 7.16 11.551 4.051 38.32 8.06 46.947 7.02 6.157-.735 6.466-.674 12.799 2.543 8.634 4.386 14.15 4.502 22.12.466l5.549-2.815 3.738 3.124c2.057 1.718 4.419 3.124 5.25 3.124 4.252 0 7.817-5.348 10.474-15.712 1.315-5.128 1.643-10.499 1.783-29.18.186-25.22 1.225-31.882 6.45-41.484 3.268-6 8.613-11.981 9.968-11.144.726.446-.373 2.773-3.522 7.437-6.117 9.07-7.656 12.801-9.399 22.815-1.195 6.873-1.357 11.662-.858 25.519.506 14.11.36 18.287-.868 24.17-3.9 18.736-12.185 25.12-21.565 16.602-1.766-1.603-1.936-1.588-6.284.546-6.486 3.18-13.1 3.607-19.7 1.273zm-180.49-6.217c-44.94-.453-44.22-.473 38.979-1.096 46.622-.346 85.11-.42 85.53-.16 3.678 2.273-10.06 2.412-124.51 1.259zm226.92-2.93c.433-1.292-3.801-1.261 99.21-.715 57.12.306 66.52.5 46.46.987-13.826.333-52.34.659-85.59.729-48.01.1-60.38-.107-60.08-1m-44.48-4.04c-.2-.373.133-2.693.739-5.163l1.103-4.489.107 5.162c.093 4.502-.812 6.587-1.948 4.49m169.05-3.912c-8.769-.99-86.6-14.582-85.53-14.937.446-.153 18.564 2.527 40.26 5.947 21.693 3.421 43.876 6.711 49.3 7.313 18.05 2 37.36-.36 63.4-7.754 6.218-1.766 11.716-3.477 12.217-3.801 1.764-1.141 12.905-22.23 15.963-30.22 4.462-11.652 5.217-15.576 4.796-24.917-.326-7.184-.781-9.124-3.388-14.394-3.616-7.311-8.128-12.604-16.299-19.12-6.342-5.061-7.985-5.784-7.985-3.515 0 .741-.36 1.246-.801 1.122-.44-.12-3.682 3.01-7.204 6.958-3.522 3.95-8.515 9.302-11.1 11.892l-4.693 4.71 5.387-.005c4.719-.005 6.074-.44 10.925-3.519 6.076-3.855 5.575-2.675 6.889-16.221.166-1.728.366.333.446 4.581l.147 7.724-5.612 4.336c-3.086 2.386-5.742 4.428-5.903 4.539-.606.426 9.718 13.561 13.668 17.389 3.663 3.548 5.221 6.322 3.554 6.322-.902 0-21.817-11.125-21.504-11.438.153-.153 2.254.579 4.67 1.626 8.797 3.815 8.721 3.955 2.472-4.59l-5.882-8.04h-6.149c-5.356 0-6.332.26-7.573 2.02-1.335 1.894-1.31 2.038.4 2.307 1 .16 1.822.755 1.822 1.327 0 .573-3.099 4.157-6.887 7.967-5.789 5.824-6.707 7.142-5.765 8.277.966 1.164 2.467.333 10.843-6.01 6.932-5.248 10.173-8.328 11.293-10.735 2.062-4.431 2.658-3.762.686.769-.839 1.927-1.417 3.909-1.284 4.402.133.493-.067.606-.4.253-.353-.353-5.083 3.258-10.508 8.03l-9.863 8.672-2.561-3.09c-1.409-1.7-2.573-3.505-2.586-4.01 0-.506 2.591-3.516 5.787-6.683 3.196-3.168 5.582-5.984 5.303-6.259-.28-.273-4.01 3.162-8.28 7.637-8.588 8.99-7.964 8.091 4.191-6.04 4.531-5.269 8.231-9.915 8.221-10.325 0-.413-2.029-2.062-4.489-3.671-2.46-1.608-4.473-3.301-4.473-3.76 0-.835 2.839-1.325 13.02-2.251 4.498-.413 5.684-.888 7.183-2.901 1.56-2.095 8.404-9.745 13.243-14.802.864-.903 1.571-2.248 1.571-2.988 0-.741.666-1.347 1.477-1.347.812 0 6.367-4.545 12.345-10.1 12.187-11.327 12.1-10.782-.453 2.7l-8.626 9.268 12.01 11.808c11.33 11.139 12.12 12.141 13.894 17.696 3.677 11.499 2.364 25.13-3.827 39.689-2.035 4.787-12.444 24.365-15.535 29.22-.067.093-10.428 2.823-23.04 6.06l-22.928 5.887-14.757-.113c-8.117-.067-17.787-.46-21.491-.878zm49.38-83.85l2.109-2.244h-4.87-4.87l2.694 2.208c1.481 1.214 2.724 2.21 2.761 2.212.067.003 1.017-1.01 2.176-2.24zm-302.52 79.23c0-.619 3.315-4.556 7.313-8.754 7.218-7.578 7.242-7.594 3.451-2.244-2.101 2.963-4.839 6.902-6.085 8.754-2.206 3.277-4.767 4.506-4.678 2.244m11.628-1.935c0-1.128 7.915-4.589 8.7-3.805.44.44-6.664 5.067-7.783 5.067-.506 0-.917-.566-.917-1.262m-20.65-.906c0-.699 2.01-2.871 4.468-4.828 2.458-1.956 5.935-5.324 7.729-7.483 1.794-2.159 3.461-4.128 3.706-4.374 1.046-1.054-2.691 6.979-4.434 9.531-1.753 2.565-9.274 8.426-10.814 8.426-.36 0-.653-.573-.653-1.271zm171.73-8.33c.873-.226 2.085-.213 2.693.067.606.246-.107.433-1.588.413-1.481 0-1.979-.22-1.105-.446zm-5.853-.87c.619-.246 1.627-.246 2.244 0 .619.246.113.453-1.122.453-1.235 0-1.74-.206-1.122-.453m-4.434-.916c.646-.26 1.423-.226 1.721.073.3.3-.233.513-1.178.473-1.046-.067-1.259-.26-.546-.539zm-5.387-.898c.646-.26 1.423-.226 1.721.073.3.3-.233.513-1.179.473-1.046-.067-1.258-.26-.539-.546zm64.49-2.568c-6.123-1.873-25.26-4.757-63.65-9.586-5.473-.689-7.856-1.353-7.856-2.191 0-1.745 1.134-1.64 35.45 3.285 25.04 3.593 32.25 4.934 36.17 6.734 2.699 1.235 5.612 2.246 6.474 2.246.861 0 4.073-3.03 7.136-6.734 3.064-3.704 5.779-6.733 6.03-6.733.737 0-10.946 14.681-11.874 14.922-.46.12-4.01-.755-7.889-1.943m-292.37-3.552c-1.235-.705-1.841-1.283-1.347-1.283.493 0 1.907.579 3.142 1.283 1.234.706 1.84 1.283 1.347 1.283-.493 0-1.908-.579-3.142-1.283m-11.678-10.701c-6.169-3.17-11.347-6.402-11.507-7.183-.413-2.02.3-1.815 6.188 1.76 8.123 4.935 18.19 9.307 23.444 10.181l4.776.795-5.842.107c-5.509.1-6.48-.22-17.06-5.658zm194.5-8.04c-.816-17.266-.067-19.708 10.02-32.22 2.686-3.333 5.241-6.06 5.68-6.06 1.921 0 .46 3.18-3.843 8.344-7.635 9.169-8.984 13.1-9.889 28.804-.426 7.409-.907 13.602-1.068 13.762-.16.16-.566-5.525-.902-12.635m114.77 5.269c-2.609-2.716-5.453-4.938-6.318-4.938-.866 0-1.335-.24-1.044-.533 1.125-1.125 4.461.838 8.641 5.085 2.395 2.434 4.753 4.424 5.239 4.424 1.31 0 6.68-3.818 7.716-5.486.695-1.119-.147-2.954-3.716-8.12l-4.614-6.674-21.678-2.386-21.678-2.386-8.19-5.168c-16.913-10.673-20.311-12.985-20.311-13.817 0-.473.573-.854 1.272-.854.699 0 1.407-.32 1.571-.715.695-1.66 79.7-49.54 84.25-51.06 6.916-2.308 21.784-2.32 25.588 0 1.481.896 1.885 1.353.898 1.015-6.424-2.192-9.05-2.436-15.474-1.437-10.187 1.583-16.516 4.771-43.33 21.824-13.579 8.635-30.24 19.11-37.02 23.27-6.781 4.163-12.213 7.936-12.07 8.385.14.446 5.506 4.169 11.923 8.268l11.668 7.453 19.708 2.306c10.839 1.269 20.795 2.524 22.12 2.789 1.867.373 3.554 2.315 7.431 8.552 2.758 4.438 4.762 8.478 4.453 8.978-1.267 2.051-7.987 6.178-10.06 6.178-1.524 0-3.722-1.556-6.97-4.938zm-212.39-9.03c10.162-19.792 18.239-28.21 39.637-41.34 6.363-3.903 11.584-7.333 11.602-7.623 0-.286-3.906-1.748-8.721-3.241l-8.754-2.713-8.337 8.627-8.338 8.628 6.317-8.695c3.475-4.781 6.318-8.907 6.318-9.166 0-.26-2.525-1.247-5.612-2.195l-5.611-1.722-15.263 3.917c-8.395 2.155-15.582 3.817-15.971 3.695-.393-.12 5.267-2.2 12.57-4.619l13.278-4.396-4.938-1.598c-2.716-.879-9.08-2.852-14.14-4.384-6.187-1.873-9.203-3.215-9.203-4.095 0-.719.24-1.308.533-1.308.293 0 17.16 5.03 37.484 11.184 36.921 11.174 36.975 11.187 63.887 15.487 14.814 2.367 26.13 4.411 25.14 4.541-.988.133-14.12-1.34-29.18-3.267l-27.383-3.505-19.304 13.606-19.303 13.607-10.433 15.06c-5.738 8.282-10.747 15.345-11.132 15.698-.386.353 1.802-4.229 4.858-10.181m259.12.073c-1.975-1.217-3.339-2.224-3.03-2.24.888-.067 8.868 3.603 8.868 4.054 0 1.01-2.539.213-5.836-1.814m-13.916-10.69c0-.681 6.101-7.651 13.559-15.487 14.03-14.743 23.581-24.337 19.548-19.635-20.372 23.747-31.562 36.36-32.25 36.36-.466 0-.853-.559-.853-1.239m10.774-4.537c0-.707 4.068-5.959 9.04-11.672 8.709-10 12.41-13.537 7.821-7.467-1.213 1.605-5.119 6.857-8.68 11.672-6.237 8.434-8.181 10.208-8.181 7.467m-263.91-18.03l-14.761-10.248-3.879 3.178c-2.923 2.396-7.455 4.376-18.394 8.04-7.984 2.672-14.644 4.731-14.8 4.575-.153-.153 5.974-2.846 13.622-5.978 7.647-3.132 15.187-6.765 16.754-8.07l2.85-2.38-10.699-1.864c-13.381-2.331-28.585-8.381-33.757-13.431-3.058-2.986-3.411-3.787-3.271-7.429l.16-4.083.34 3.789c.28 3.128.992 4.345 4.067 6.977 2.049 1.754 5.359 3.63 7.357 4.171 1.998.539 6.662 2.133 10.366 3.539 10.795 4.101 24.31 6.709 22.895 4.419-1.206-1.952.619-2.787 2.872-1.312 2.22 1.454 2.314 1.414 5.677-2.414 2.088-2.377 4.03-5.922 4.998-9.104 1.621-5.354 2.434-6.519 3.913-5.604.513.313.326 2-.46 4.233-.719 2.039-1.17 3.846-1 4.01.167.167 2.622-.12 5.453-.646 7.59-1.403 7.756-.666.413 1.836-5.03 1.711-7.296 3.088-10.132 6.148-2.01 2.169-3.746 4.202-3.858 4.518-.113.32 2.514 2.319 5.836 4.45l6.04 3.875-5.387-5.062c-2.962-2.785-4.927-4.835-4.366-4.557 2.522 1.247 27.709 22.335 27.709 23.2 0 2.294-2.609.912-16.557-8.771zm69.977 8.114c0-.286 1.191-2.881 2.647-5.766 3.647-7.224 13.514-15.712 13.514-11.624 0 .573-1.656 2.454-3.68 4.186-2.024 1.732-5.66 5.53-8.08 8.438-2.42 2.908-4.401 5.05-4.401 4.767m-196.4-3.388c-3.924-4.918-4.863-12.601-2.33-19.08.773-1.975 1.706-6.327 2.075-9.671.701-6.362 1.138-7.472 2.581-6.579 1.385.856.193 11.303-1.857 16.251-2.332 5.632-2.51 13.311-.4 17.283 1.579 2.972 1.546 3.821-.067 1.796zm215.26-4.489c.005-1.385 3.632-9.216 4.385-9.467 1.752-.586 1.081 2.428-1.363 6.12-2.05 3.097-3.02 4.177-3.02 3.347m42.03-6.673c.646-.26 1.423-.226 1.721.073.3.3-.233.513-1.178.473-1.046-.067-1.259-.253-.546-.539zm-6.773-.907c.874-.226 2.086-.213 2.693.067.606.246-.107.433-1.588.413-1.482 0-1.979-.22-1.106-.446zm21.306-1.512c0-.805 6.191-3.339 17.732-7.261 9.752-3.314 21.974-8.09 27.16-10.607l9.427-4.582 23.317-22.947c12.824-12.621 22.681-22.14 21.905-21.15-26.17 33.28-36.542 43.09-55.1 52.1-7.935 3.855-40.931 15.682-43.751 15.682-.38 0-.691-.553-.691-1.236m-177.31-8.629c-.3-.486 1.359-2.926 3.69-5.418 3.815-4.079 4.347-5.179 5.321-11.01l1.082-6.478.113 7.665.113 7.665-4.296 4.231c-4.508 4.44-5.131 4.787-6.02 3.344m306.39-6.04c-1.846-3.214-3.187-6.119-2.98-6.454.727-1.176 18.737 1.183 19.18 2.511.34 1.034-.991 1.138-7.799.606l-8.211-.646 1.842 4.675c1.014 2.571 1.727 4.781 1.585 4.912-.14.133-1.768-2.392-3.614-5.606zm-292.26-.884c.822-9.06 4.01-13.06 8.858-11.12l2.15.86-2.359.067c-3.273.08-4.284 1.65-5.58 8.667-1.49 8.07-3.765 9.208-3.069 1.531zm-21.762 2.856c0-.752 1.717-3.222 3.816-5.491 3.126-3.379 3.999-5.118 4.829-9.631l1.012-5.508.107 7.112.107 7.112-4.056 3.886c-4.28 4.101-5.82 4.768-5.82 2.519zm114.57-.519c-9.198-1.343-17.17-4.046-46.604-15.81-25.423-10.159-30.674-12.713-29.19-14.199.22-.22 13.499 4.859 29.515 11.281 40.33 16.17 43.573 17.18 57.4 17.776 8.998.393 10.422.619 7.182 1.148-5.18.846-11.63.777-18.306-.2zm223.5-5.07c7.15-8.332 18.797-20.245 24.2-24.751 2.47-2.06-2.959 4.03-12.06 13.533-9.104 9.503-16.728 17.278-16.944 17.278-.213 0 1.949-2.727 4.81-6.06m-200.03 3.67c.619-.246 1.627-.246 2.244 0 .619.246.113.453-1.122.453-1.235 0-1.74-.206-1.122-.453m-147.92-6.47c0-.426 1.818-2.597 4.04-4.82 3.911-3.911 4.04-4.224 4.133-9.77l.093-5.73 1.215 5.387c1.693 7.505 1.754 7.251-2.829 11.706-3.821 3.713-6.651 5.086-6.651 3.227zm188.54-.466c0-.779 3.97-2.687 10.55-5.07 9.651-3.497 10.99-4.267 15.724-9.06 4.323-4.373 4.932-4.758 3.695-2.337-4.202 8.227-8.03 11.08-20.224 15.06-9.282 3.03-9.745 3.1-9.745 1.402m33.22.1c0-.633 3.089-4.543 6.864-8.695 7.972-8.767 8.06-8.55.768 1.999-4.975 7.202-7.632 9.533-7.632 6.696m113.06-5.592c9.01-10.171 11.877-13.01 13.12-13.01 2.441 0 1.33 1.487-6.096 8.164-9.959 8.954-11.772 10.205-7.03 4.849m-343.23-4.864c-4.581-4.492-8.575-7.921-8.877-7.62-.3.3-1.95.087-3.664-.48-2.24-.739-3.278-1.71-3.694-3.457-.32-1.335-.793-3.236-1.054-4.223-.32-1.22.107-.947 1.345.851 1 1.457 2.99 3.274 4.422 4.04 3.54 1.895 21.728 16.269 21.728 17.17 0 2.654-2.937.845-10.207-6.284m-32.629 4.195c3.065-7.616 5.59-12.345 6.591-12.345 1.914 0 1.509 1.245-2.462 7.58-3.381 5.393-5.249 7.549-4.129 4.765m12.554-5.162c1.094-3.752 2.32-6.285 3.039-6.285.666 0 1.206.413 1.206.924 0 1.042-5.231 11.646-5.746 11.646-.186 0 .493-2.828 1.501-6.284m191.92 5.162c0-.619 9.409-6.451 20.875-12.963 26.894-15.277 29.75-17.593 41.32-33.511.894-1.23.72-.619-.386 1.359-9.327 16.649-17.498 23.589-45.41 38.573-14.466 7.766-16.45 8.558-16.4 6.542zm-132.48-12.845c-4.488-5.523-6.663-8.889-6.105-9.448.559-.559 1.369-.3 2.275.725 1.744 1.974 11.618 17.304 11.146 17.304-.186 0-3.481-3.862-7.316-8.581m-33.681 0c-6.754-6.887-7.686-7.305-10.532-4.725-1.478 1.34-.976.313 1.39-2.837 2.037-2.714 3.419-5.19 3.071-5.503-.346-.313-3.098-.833-6.11-1.156-4.638-.5-5.662-.34-6.69 1.014-1.036 1.366-1.029 1.436.067.48 2.231-1.99 2.84-1.196 1.205 1.571-1.646 2.787-2.533 3.278-3.397 1.88-.273-.446-1.31-.599-2.298-.346-2.572.673-2.216-.992.992-4.647 2.354-2.682 3.363-3.172 6.509-3.16 2.047 0 5.991.546 8.763 1.2 4.522 1.064 5.01 1.04 4.709-.24-.18-.784-5.166-23.52-11.07-50.53l-10.743-49.1 10.703-23.641c9.913-21.894 10.97-24.767 14.3-38.886 6.344-26.897 17.833-51.37 33.814-72.04l7.12-9.208 22.893-7.432 22.893-7.432 6.424-13.887c11.792-25.492 11.758-25.341 14.66-67.31 2.19-31.673 2.813-37.4 4.823-44.4 1.27-4.422 2.223-8.109 2.119-8.193-.107-.087-4.54-2.464-9.857-5.29-5.317-2.826-10.02-5.806-10.454-6.622-1.587-2.992-2.989-15.489-2.615-23.306.326-6.777.837-8.955 3.283-13.922 3.679-7.473 9.804-13.06 19.377-17.678 14.11-6.806 20.685-7.05 37.31-1.387 21.766 7.415 25.996 10.637 41.733 31.789 6.114 8.218 12.341 15.848 13.839 16.955 2.406 1.779 6.977 9.832 6.086 10.723-.186.186-.85-.895-1.474-2.402-1.05-2.534-1.381-2.697-4.386-2.155-7.423 1.339-18.797 5.135-22.839 7.622l-4.327 2.662-11.385-2.353c-12.442-2.571-17.689-2.47-23.411.453-3.636 1.856-5.497 3.742-7.578 7.679-.783 1.481-1.439 2.268-1.459 1.747 0-.519 1.183-2.87 2.674-5.221 3.442-5.427 7.735-7.356 17.94-8.06 5.766-.4 9.473-.113 15.16 1.17l7.531 1.696 3.363-2.225c4.168-2.758 14.271-6.38 19.977-7.162 2.357-.32 4.461-.872 4.677-1.22.573-.932-6.414-7.501-8.27-7.774-.874-.127-3.714-.841-6.311-1.582-3.505-1-5.935-1.144-9.427-.553-12.15 2.056-11.467 2.059-6.949-.067 6.294-2.924 11.732-3.663 16.963-2.306 5.058 1.312 5.065 1.495-.213-5.552-2.091-2.79-3.817-4.354-4.172-3.781-.433.699-1.323.707-3.118 0-8.947-3.402-15.801-2.911-26.434 1.893-3.164 1.43-5.889 2.464-6.05 2.299-.166-.167 2.625-1.956 6.202-3.979 10.209-5.774 15.966-6.799 23.615-4.202 2.286.777 4.364 1.203 4.618.95.253-.253-3.118-4.073-7.492-8.486-9.204-9.285-13.591-11.784-29.501-16.807-8.093-2.554-12.338-3.408-17.06-3.429-14.468-.067-30.79 9.935-37.03 22.691-2.93 5.989-3.784 17.682-1.987 27.21 1.336 7.082 1.219 6.968 14.1 13.791 4.894 2.592 8.303 4.956 8.3 5.757-.003.747-1.203 5.6-2.667 10.786-2.497 8.841-2.663 10.43-2.685 25.588-.067 35.583-5.964 66.851-16.34 86.41-2.946 5.556-5.03 10.123-4.623 10.149.406 0-10.376 3.86-23.956 8.519l-24.69 8.471-4.695 4.97c-6.01 6.36-10.685 13.276-16.809 24.855-4.04 7.644-6.446 14.398-13.835 38.879-8.181 27.1-9.815 31.546-19.17 52.13l-10.232 22.498 11.02 50.16 11.02 50.16-3.48 2.978c-4.558 3.902-4.069 5.54 3.201 10.729 3.147 2.245 5.722 4.653 5.722 5.351 0 2.171-1.243 1.435-6.315-3.736zm318.69-10.71c-9.04-10.726-11.743-14.827-23.478-35.581-7.295-12.902-13.264-24.05-13.264-24.763 0-3.626 3.399 1.509 15.712 23.74 9.957 17.976 15.87 27.496 22.682 36.52 5.068 6.714 9.07 12.207 8.889 12.207-.18 0-4.922-5.455-10.54-12.12m-337.48 4.716c0-.619 1.674-2.257 3.677-3.644 3.67-2.54 3.732-2.22.44 2.297-1.859 2.555-4.179 3.313-4.119 1.347zm172.05-1.272c-.326-.326-.599-.962-.599-1.407 0-.446 7.979-4.687 17.732-9.428 28.65-13.928 34.771-19.515 60.985-55.679 10.112-13.949 18.561-25.363 18.776-25.363 1.097 0-35.564 53.21-39.49 57.31-9.835 10.285-18.204 16.03-37.533 25.786-20.06 10.12-18.998 9.65-19.871 8.777zm266.43-10.484l10.695-11.475-6.181-6.229c-3.4-3.426-6.43-6.229-6.732-6.229-.3 0-7.99 6.961-17.08 15.469-9.09 8.508-14.941 13.66-12.996 11.447 7.396-8.411 28.958-30.508 29.77-30.508.466 0 4.476 3.652 8.91 8.116l8.06 8.117-8.978 8.493c-14.711 13.916-16.848 15.01-5.466 2.799m-405.67 6.746c-5.923-2.314-8.661-4.642-5.459-4.642 1.201 0 11.463 5.411 12.945 6.825.87.831-1.66.093-7.487-2.183m335.72-27.762c-5.349-14.196-9.921-26.357-10.158-27.02-.28-.791.133-1.104 1.194-.898 1.267.246 3.568 6.141 10.44 26.742 4.848 14.535 8.687 26.554 8.532 26.71-.153.153-4.659-11.333-10.01-25.529m58.974 13.732c8.316-8.352 11.502-10.507 11.502-7.778 0 .38-2.719 2.877-6.04 5.558-14.244 11.492-14.996 11.798-5.46 2.22m-316.2-.153c-13.58-.669-25.26-1.435-25.963-1.701-.882-.34-.986-.773-.333-1.421.646-.646 9.704-.506 29.554.46l28.618 1.395 22.809-6.276c12.545-3.453 22.937-6.149 23.09-5.992.153.153-9.971 3.596-22.506 7.642-15.684 5.063-24 7.318-26.685 7.233-2.143-.067-15.01-.671-28.585-1.34zm-68.05-48.815c-1.13-23.455-2.286-44.898-2.567-47.651l-.513-5 9.16-10.707c16.827-19.672 19.584-24.535 30.733-54.21 4.907-13.07 9.31-24.479 9.784-25.363 1.403-2.622 2.5-1.845 2.482 1.758 0 1.851.539 11.545 1.219 21.541 1.211 17.803 1.291 18.251 3.903 21.968 6.944 9.88 19.374 14.773 38.534 15.168l6.284.127-4.938.756c-6.624 1.014-21.05-.48-27.33-2.833-10.561-3.951-15.952-10.56-19.413-23.798-1.535-5.872-1.768-8.694-1.329-16.1.346-5.874.233-8.5-.326-7.594-.473.761-3.945 9.65-7.715 19.752-7.88 21.12-8.801 22.859-17.516 33.18-11.565 13.699-17.09 20.793-18.77 24.12-1.593 3.145-1.608 4.929-.393 47.709.693 24.443 1.149 45.654 1.014 47.14-.133 1.482-1.169-16.497-2.3-39.953zm255.03 40.4c.193-2.097.566-2.257 5.596-2.439 5.688-.206 4.567 1.102-1.451 1.692-1.671.167-3.335.904-3.696 1.645-.433.887-.586.579-.446-.898zm-249.42-.067c-.326-.526-.453-1.076-.28-1.221.173-.147 11.627-8.169 25.453-17.83 13.826-9.661 26.19-18.707 27.465-20.1 1.279-1.395 18.209-22.737 37.623-47.43 19.413-24.69 35.87-45.498 36.572-46.24 1.174-1.241-21.952 35.94-30.715 49.38-10.249 15.72-36.588 43.861-54.47 58.2-8.238 6.605-38.57 26.2-40.554 26.2-.28 0-.77-.433-1.095-.958zm235.79-5.851c.067-1.046.253-1.259.546-.546.26.646.226 1.423-.073 1.721-.3.3-.513-.233-.473-1.178zm14.437.073c-1.907-24.887-2.974-41.91-2.649-42.23.226-.226 4.419 1.22 9.315 3.215 14.448 5.887 24.896 8.186 39.654 8.723 7.04.26 12.794.186 12.794-.16 0-.346-1.777-4.745-3.947-9.776-2.171-5.03-10.193-23.69-17.826-41.467l-13.878-32.32 1.619-19.304c2.519-30.02 2.245-36.959-2.037-51.625-5.758-19.721-16.656-32.454-36.2-42.3-8.796-4.43-7.83-4.402 4.29.127 4.335 1.619 10.04 4.57 12.669 6.558 8.09 6.108 16.87 19.46 21.355 32.476 4.536 13.163 5.682 37.786 2.863 61.5l-1.495 12.57 10.338 24.24c16.2 37.988 24.949 59.22 24.949 60.55 0 .999-2.634 1.122-14.59.683-12.498-.46-15.948-.922-24.06-3.233-5.21-1.483-12.843-4.139-16.963-5.902-4.119-1.764-7.582-3.096-7.694-2.961-.113.133.5 4.892 1.359 10.571 1.206 7.967 1.417 12.785.921 21.1-.353 5.926-.703 9.966-.779 8.978zm-219.21-3.074c0-.453 7.778-5.756 17.284-11.778 9.506-6.02 20.715-13.83 24.909-17.351 27.356-22.967 26.728-22.559 10.779-7.01-13.959 13.608-15.838 15.09-32.541 25.706-16.557 10.52-20.431 12.498-20.431 10.434m206.08-2.312c.24-1.975.689-7.84 1-13.03.559-9.321.513-9.624-3.646-24.15-2.856-9.974-3.919-15-3.299-15.623 1.057-1.056 3.119 3.343 6.94 14.807 2.19 6.569 2.476 8.716 2.372 17.796-.087 7.316-.653 12.287-1.96 17.06-1.096 4.01-1.666 5.281-1.407 3.143m-106.21-.639c.2-.599 4.172-2.669 8.829-4.605 10.454-4.346 14.835-7.307 22.672-15.325 12.313-12.595 17.358-21.543 43.704-77.51 6.099-12.958 11.208-23.442 11.351-23.298.326.326-29.05 67.61-32.21 73.79-7.122 13.913-20.444 30.444-30.483 37.827-4.28 3.149-19.995 10.207-22.723 10.207-.823 0-1.335-.486-1.136-1.086m-132.6-6.02c-.827-1.338 2.976-5.942 13.411-16.234 13.21-13.03 16.585-18.11 21.1-31.768l3.826-11.567-2.924-21.01c-1.608-11.557-2.745-21.19-2.525-21.411.519-.519 7.957 41.43 7.933 44.727 0 1.383-.679 3.791-1.486 5.352-.807 1.561-2.594 6.169-3.97 10.241-2.713 8.02-9.244 17.509-17.772 25.808-3.542 3.448-4.354 4.741-3.718 5.929 1.247 2.328 4.496 10.759 4.147 10.759-.167 0-1.818-2.273-3.662-5.05l-3.353-5.05-5.195 5.14c-3.241 3.207-5.427 4.763-5.814 4.137m61.881-.113c-.968-1.566.286-2.412 21.578-14.608 18.936-10.845 20.451-11.922 36.36-25.851l16.603-14.534-15.264 15.423-15.263 15.423-19.752 11.357c-10.864 6.246-20.624 11.912-21.689 12.59-1.429.909-2.105.961-2.575.2m60.63.426c0-.28 7.416-10.886 16.481-23.568 9.622-13.463 19.18-28.01 22.977-34.956 3.573-6.543 6.689-11.896 6.924-11.896.233 0-1.581 3.738-4.04 8.305-2.455 4.567-8.545 15.91-13.533 25.2-7.03 13.09-10.941 19.2-17.37 27.11-4.677 5.755-8.987 10.234-9.872 10.261-.864 0-1.571-.18-1.571-.46zm-95.55-15.02c-.722-6.835-.373-8.998 1.174-7.307.42.46.5 3.868.167 7.572l-.599 6.733-.739-6.998zm10.32-8.779c-4.902-5.682-5.978-8.01-3.696-8.01.413 0 2.807 3.232 5.315 7.182 2.508 3.951 4.402 7.183 4.21 7.183-.193 0-2.816-2.858-5.83-6.35m9.899-13.549c-4.988-4.03-9.07-7.644-9.07-8.03 0-2.67 3.036-.742 10.599 6.732 4.787 4.731 8.442 8.606 8.121 8.613-.32.006-4.664-3.287-9.651-7.317m183.14-34.494c.067-1.046.253-1.259.539-.539.26.646.226 1.422-.073 1.72-.3.3-.513-.233-.473-1.178zm-58.43-4.863c1.01-1.975 2.034-3.591 2.281-3.591.246 0-.373 1.616-1.383 3.591-1.01 1.975-2.035 3.591-2.281 3.591-.246 0 .373-1.616 1.383-3.591m59.4 0c0-1.235.206-1.74.453-1.122.246.619.246 1.627 0 2.244-.246.619-.453.113-.453-1.122m-13.538-.526c.067-1.046.253-1.259.539-.539.26.646.226 1.423-.073 1.721-.3.3-.513-.233-.473-1.178zm.968-4.863c0-1.235.206-1.74.453-1.123.246.619.246 1.628 0 2.245-.246.619-.453.113-.453-1.122m13.467 0c0-1.235.206-1.74.453-1.123.246.619.246 1.628 0 2.245-.246.619-.453.113-.453-1.122m13.799-.32c2.892-1.981 19.544-11.453 20.457-11.636.466-.093 1.028.34 1.256.963.266.725-3.68 3.063-10.982 6.509-11.497 5.426-13.974 6.387-10.731 4.165m-12.868-4.622c0-1.481.22-1.979.446-1.105.226.873.213 2.085-.067 2.693-.246.606-.433-.107-.413-1.588zm-98.04.752c0-.976 30.884-67.58 31.19-67.27.133.133-6.193 15.357-14.06 33.83-9.295 21.828-14.797 33.689-15.718 33.877-.779.16-1.417-.067-1.417-.44zm84.5-.073c-.067-.613 1.106-9.504 2.585-19.752 5.02-34.788 5.592-37.936 6.877-37.936.666 0 1.208.526 1.208 1.172 0 1.139-9.521 53.591-10.218 56.29-.2.76-.393.86-.453.226zm14.335-4.717c-.067-1.342 14.751-93.8 15.648-97.64.26-1.111 1.114-2.02 1.899-2.02 1.024 0 1.291.573.946 2.02-.266 1.111-4.363 23.433-9.107 49.605-8.481 46.783-9.251 50.728-9.387 48.03m-56.61-7.632c0-.493.393-1.504.87-2.244.48-.741.87-.942.87-.446 0 .493-.393 1.504-.87 2.244-.48.741-.87.943-.87.446m-145.3-7.182c0-1.482.22-1.979.446-1.106.226.874.213 2.086 0 2.693-.246.606-.433-.107-.413-1.588zm65.59-.173c.864-.226 2.278-.226 3.142 0 .864.226.16.413-1.571.413-1.728 0-2.436-.186-1.571-.413m82.86-.727c1.81-6.06 32.11-88.14 32.797-88.84 3.546-3.603.44 5.794-14.524 43.948-15.441 39.37-19.878 50.27-18.273 44.891m74.07.293c-5.515-1.582-10.807-6.76-10.807-10.573 0-1.607 2.543-1.035 3.092.695 1.03 3.245 5.539 6.303 12.619 8.56l7.183 2.288-4.489-.067c-2.47 0-5.889-.44-7.599-.931zm-223.52-4.857c.067-1.046.253-1.259.539-.539.26.646.226 1.423-.073 1.721-.3.3-.513-.233-.473-1.178zm124.73-1.272c.526-.988 1.163-1.796 1.41-1.796.246 0 0 .808-.513 1.796-.526.988-1.163 1.796-1.41 1.796-.246 0 0-.808.513-1.796m2.812-4.489c.739-1.235 8.964-15.174 18.277-30.975 9.313-15.802 17.539-29.447 18.281-30.32.856-1.01 1.662-1.279 2.205-.736.546.546-6.282 12.12-18.673 31.669-10.741 16.947-19.959 31.22-20.483 31.711-.526.493-.346-.113.393-1.347m88.77-5.747c0-1.173 1.107-1.437 6.06-1.443 3.467-.003 8.558-.769 11.896-1.789 3.209-.98 6.04-1.778 6.284-1.772.246.005-1.571 1.305-4.04 2.888-4 2.567-5.338 2.914-12.345 3.215-6.742.286-7.856.133-7.856-1.1m-118.2-5.507c-.559-1.453 4.609-43.645 5.864-47.888.626-2.109.667-2.094 4.45 1.54 4.171 4.01 8.04 5.507 12.52 4.85 1.786-.26 2.89-.067 2.89.579 0 1.105-17.868 29.725-18.558 29.725-.426 0 1.289-3.158 10.177-18.701 2.635-4.607 4.79-8.546 4.79-8.754 0-.206-1.56-.38-3.466-.38-2.234 0-4.665-.813-6.839-2.289-1.855-1.259-3.508-2.154-3.673-1.989-.872.872-5.298 38.21-4.474 37.758.519-.286.44 0-.18.685-.619.666-1.122 2.115-1.122 3.221 0 2.522-1.615 3.633-2.38 1.638zm5.074-8.499c.526-.988 1.163-1.796 1.409-1.796.246 0 0 .808-.513 1.796-.526.988-1.164 1.796-1.41 1.796-.246 0 0-.808.513-1.796m122.77-27.561c-.22-.393 1.128-6.377 2.994-13.29 3.924-14.542 4.161-14.258 1.434 1.726-1.749 10.25-3.142 13.89-4.428 11.565m-29.14-25.663c-1.697-21.06-1.656-26.589.186-24.749.553.553 2.571 47.43 2.063 47.94-.193.193-1.204-10.243-2.247-23.19zm-70.891 16.811c-11.791-2.464-17.723-5.237-24.09-11.263-2.558-2.418-4.98-4.398-5.383-4.398-.406 0-2.665-1.239-5.03-2.755-5.544-3.558-7.985-8.387-7.985-15.799 0-6.099-.213-5.707 12.501-22.928 7.257-9.83 7.863-10.401 14.988-14.13 4.563-2.391 8.468-5.188 10.132-7.258 1.489-1.853 4.687-4.355 7.106-5.561 4.02-2 4.294-2.338 3.18-3.862-1.679-2.296-1.626-8.508.073-8.508.846 0 1.389 1.164 1.572 3.367.293 3.521.721 3.726 5.257 2.523 1.955-.519 2.604-.113 4.491 2.812 2.897 4.49 6.417 5.099 8.394 1.453.962-1.776 1.379-2.058 1.404-.952.067 2.3-3.202 5.163-5.87 5.163-1.373 0-3.408-1.094-5.01-2.693-2.92-2.921-3.575-3.257-3.229-1.657.127.573-2.292 2.02-5.367 3.213-4.051 1.577-6.663 3.367-9.476 6.496-2.562 2.85-6.311 5.545-11.02 7.921-7.08 3.572-7.209 3.704-16.561 16.484l-9.427 12.882v5.995c0 7.379 1.614 9.927 8.717 13.758 2.747 1.481 7 4.575 9.458 6.875 6.542 6.127 14.53 9.693 25.826 11.532l5.242.853 7.925-4.535c10.433-5.971 23.831-15.906 27.339-20.273 8.461-10.534 9.976-21.95 3.381-25.479-1.471-.788-2.113-1.876-2.041-3.466.08-1.855.193-1.959.539-.519.691 2.874 1.92 3.66 3.172 2.028 1.023-1.333 2.148-1.11 12.348 2.461 6.173 2.16 10.916 3.953 10.542 3.984-.719.067-18.791-4.113-21.634-4.994-1.475-.46-1.429-.2.4 2.278 4.792 6.482.825 20.11-8.222 28.24-9.58 8.613-27.661 21.324-31.815 22.365-.988.246-6.311-.493-11.83-1.647zm-120.38-27.557c.333-1.01 16.885-7.736 19.08-7.756.493-.005-2.94 1.971-7.631 4.39-8.56 4.413-12.147 5.468-11.449 3.367m45.725-4.554c-2.135-1.56-6.145-3.648-8.911-4.641-5.04-1.807-7.282-4.048-4.052-4.048 5.527 0 13.788 5 16.438 9.957 1.142 2.133 1.212 2.159-3.476-1.268m22.772-1.567c-7.815-6.458-9.353-7.241-19.595-9.981-14.487-3.875-14.586-4.296-1.989-8.472 9.528-3.159 11.622-4.291 16.678-9.02l4.276-3.999 3.888 2.023c2.636 1.372 6.151 2.185 10.917 2.524l7.03.5-4.895 5.402c-2.693 2.971-5.753 6.809-6.802 8.529-1.048 1.72-1.907 2.768-1.909 2.329-.005-1.283 5.365-9.753 7.892-12.444l2.317-2.469h-4.554c-2.505 0-6.674-.685-9.266-1.522l-4.713-1.522-1.927 2.242c-2.867 3.333-9.325 7.491-14.754 9.499l-4.802 1.776 6.149 2.051c7.187 2.397 14.647 6.742 19.391 11.295 6.141 5.892 3.489 6.896-3.331 1.261zm46.31-4.232c-.067-3.289.473-7.03 1.284-8.978 1.336-3.211 8.106-10.969 9.571-10.969 1.816 0 .393 3.54-2.544 6.333-3.732 3.546-6.488 9.09-7.503 15.1l-.703 4.157-.107-5.64m-40.35.253c0-.988.32-2.603.745-3.591.983-2.288.983.073 0 3.142-.579 1.805-.724 1.893-.745.446zm73.47.166c-.005-2.292 1.559-5.079 4.734-8.434 3.277-3.464 2.708-4.575-4.117-8.03-3.02-1.529-4.137-2.537-3.512-3.163 2.271-2.271 13.706 5.12 13.631 8.811 0 .921-1.641 2.787-3.605 4.145-1.965 1.359-4.372 3.783-5.349 5.387-1.249 2.047-1.78 2.43-1.782 1.286m-33.665-19.469c.393-.741 1.558-2.276 2.596-3.411 1.038-1.135 3.098-4.569 4.579-7.631 2.15-4.444 3.69-6.242 7.632-8.907 2.716-1.836 5.443-3.351 6.06-3.367 2.408-.067.943 2.652-2.47 4.569-1.975 1.11-3.591 2.348-3.591 2.751 0 .406 3.333.78 7.407.837 6.979.1 7.148.147 2.918.813-2.469.386-6.775.972-9.568 1.295-4.222.486-5.163.92-5.575 2.555-.273 1.082-2.792 4.189-5.597 6.904-2.806 2.715-4.782 4.332-4.392 3.591m42.4-.147c-1.695-.619-4.745-4.191-9.628-11.276-6.512-9.447-7.635-11.918-5.417-11.918.426 0 3.716 4.849 7.311 10.774 3.596 5.925 6.783 10.774 7.082 10.774.3 0 1.328.593 2.287 1.318 2.01 1.524 1.773 1.572-1.635.326zm9.317-2.789c-.067-.875-1.724-4.815-3.705-8.754-1.981-3.939-3.399-7.163-3.153-7.163 1 0 7.724 14.634 7.357 16.02-.346 1.305-.406 1.293-.5-.1m-36.24-1.697c-3.01-1.049-5.162-2.33-5.162-3.072 0-1.704.92-1.616 7.629.725 4.976 1.737 6.224 1.862 9.587.965 2.127-.566 3.993-.906 4.146-.753.153.153-1.102 1.134-2.791 2.178-3.743 2.313-6.676 2.304-13.409-.067zm-70.7-4.826c0-.759 2.627-6.883 5.839-13.609 3.584-7.507 5.158-11.613 4.077-10.634-2.526 2.286-5.514 1.21-9.219-3.319-6.01-7.345-7.305-10.938-7.696-21.336-.346-9.287-.32-9.461 2.067-11.672l2.42-2.244-2 3.413c-1.901 3.241-1.947 3.76-.916 10.325.599 3.802 2.02 8.981 3.155 11.509 2.025 4.497 8 12.01 9.551 12.01.426 0 1.372-1.414 2.094-3.142 1.347-3.224 2.703-4.01 3.504-2.02.246.619.506.313.566-.673.067-.988.837-7.654 1.72-14.815 1.599-12.972 1.598-13.08-.46-30.08-2.705-22.368-2.696-23.651.2-26.775 4.922-5.308 9.889-5.454 24.315-.713 12.616 4.146 21.879 5.21 32.2 3.701l7.153-1.046 10.86 3.723 10.86 3.724 3.756 11.892 3.756 11.891-3.034 12.699c-1.931 8.08-2.723 13.01-2.176 13.557 3.03 3.03-8.04 3.921-14.159 1.138-5.489-2.498-6.06-3.572-4.562-8.558 2.505-8.324 7.132-12.157 17.09-14.156 4.516-.907 4.982-1.219 4.982-3.344 0-2.894-6.12-21.72-7.515-23.11-.559-.559-4.944-2.306-9.747-3.883-8.695-2.855-8.778-2.864-19.304-2.01-5.814.473-13.399.539-16.855.147-4.612-.519-6.643-.406-7.632.42-2.962 2.48-3.842 2.648-2.7.513 1.37-2.56.922-2.924-7.176-5.831-8.806-3.162-14.613-2.836-17.675.99-2.535 3.168-2.539 2.248.1 24.24 2.031 16.924 2.09 18.654.922 27.383-1.554 11.614-1.566 12.459-.18 12.466.864.005 12.643 27.56 13.954 32.644.147.559-3.257-6.05-7.559-14.693l-7.822-15.712-.566 4.04c-.313 2.236-3.625 10.354-7.415 18.18-6.222 12.849-8.773 16.558-8.773 12.761zm12.913-27.846c.306-.799.153-1.16-.353-.845-.486.3-.888.929-.888 1.393 0 1.292.646 1.01 1.241-.546zm88.07-17.686c4.591-19.976 4.52-19.527 3.105-19.527-3.62 0-17.497 9.681-16.01 11.169.233.233 2.023-.147 3.979-.845 1.957-.697 4.567-1.25 5.802-1.229l2.244.067-2.296.697c-1.263.386-3.232 1.197-4.374 1.808l-2.077 1.112 2.578 1.707 2.578 1.707 2.523-2.919c2.355-2.725 2.482-2.77 1.906-.675-.775 2.824-2.97 7.183-3.617 7.183-.266 0-2.228-1.197-4.356-2.661-3.719-2.558-3.925-2.598-5.347-1.026-1.217 1.345-1.268 1.81-.286 2.625 2.088 1.733 5.471 2.743 9.384 2.801 3.227.067 3.869-.246 4.263-1.963zm.539 20.351c.067-1.046.253-1.259.539-.539.26.646.226 1.423-.073 1.721-.3.3-.513-.233-.473-1.178zm-.724-9.353c0-2.222.173-3.131.386-2.02.213 1.111.213 2.929 0 4.04-.213 1.112-.386.2-.386-2.02m-28.947-5.611c0-5.599.233-6.958 1.318-6.958 1.859 0 1.882 9.724 0 12.174-1.196 1.581-1.321 1.098-1.347-5.215zm-70.852.559c-6.161-4.316-5.923-14.994.446-20 3.397-2.672 4.667-2.339 5.37 1.409.34 1.806 1.154 4.321 1.812 5.589 1.016 1.959.998 2.416-.113 3.04-3.379 1.89-3.386 8.737 0 8.737.753 0 1.369.606 1.369 1.347 0 1.869-6.152 1.788-8.873-.12zm3.852-2.352c-.353-.619-1.186-1.764-1.856-2.548-1.046-1.225-.861-1.922 1.307-4.938 2.192-3.05 2.411-3.9 1.665-6.459-.473-1.62-1.277-2.807-1.789-2.637-1.867.619-4.324 4.931-4.789 8.399-.4 2.956-.067 4.04 1.941 6.431 2.348 2.791 4.809 4.02 3.522 1.752m48.12.313c-3.237-1.028-10.07-4.559-11.852-6.126-1.353-1.189-1.38-1.566-.233-3.317 4.683-7.147 18.578-7.823 24.348-1.184 1.534 1.765 1.437 1.752-1.347-.18-3.275-2.276-9.359-3.335-13.331-2.321l-2.523.646 3.85 3.435c3.486 3.11 4.122 3.357 6.728 2.609 4.17-1.196 4.194-1.02.2 1.443-3.237 1.993-3.37 2.21-1.347 2.196 3.517 0 10.122-3.33 9.335-4.673-.366-.626.213-.366 1.284.573 1.072.941 1.95 1.843 1.95 2.01 0 .16-1.941 1.278-4.314 2.481-5.05 2.556-9.595 3.42-12.744 2.419zm-2.706-6.739c-2.957-2.906-4.326-3.712-5.15-3.03-.619.506-1.122 1.245-1.122 1.634 0 .639 8.647 5.357 9.816 5.357.266 0-1.327-1.782-3.543-3.959m-28.718 3.701c0-.639 2.053-3.161 4.563-5.612l4.563-4.455-3.441 5.601c-3.205 5.217-5.686 7.166-5.686 4.466m46.24-12.632c-5.678-5.933-8.771-6.862-22.849-6.862-8.375 0-10.881-.266-10.596-1.122.266-.798 3.574-1.195 11.454-1.376 10.39-.24 11.38-.107 15.866 2.088 4.302 2.105 6.973 4.889 10.514 10.96 1.096 1.879.293 1.201-4.389-3.688m-43.875-14.675c-1.187-1.186-.346-2.045 7.289-7.457l7.856-5.568-5.836 5.994c-6.11 6.276-8.363 7.977-9.309 7.03m77.907-36.405l-1.71-2.02 2.02 1.71c1.898 1.608 2.428 2.33 1.71 2.33-.173 0-1.08-.909-2.02-2.02m-4.308-5.03l-1.7-2.381 2.099 1.995c1.155 1.097 1.92 2.169 1.7 2.381-.22.213-1.164-.686-2.099-1.995m-4.578-2.82c-.313-.506.067-.659.845-.353 1.555.599 1.84 1.241.546 1.241-.466 0-1.092-.4-1.394-.888zm-1.282-4.125c.067-1.046.253-1.259.546-.539.26.646.226 1.423-.073 1.721-.3.3-.513-.233-.473-1.179zm-.898-3.591c.067-1.046.253-1.259.539-.546.26.646.226 1.423-.073 1.721-.3.3-.513-.233-.473-1.178zm-89.32-2.034c-.739-1.197 2.954-13.449 5.995-19.888 5.351-11.33 18.17-20.909 29.385-21.952 4.504-.42 4.638-.38 1.525.42-9.547 2.451-21.07 10.779-26.307 19.01-1.159 1.822-3.551 7.782-5.317 13.243-2.979 9.214-4.076 11.12-5.281 9.168z" transform="translate(-6.79-72.26)"/></svg>